<svg width="20" height="20" viewBox="0 0 20 20" fill="none" xmlns="http://www.w3.org/2000/svg">
<path fill-rule="evenodd" clip-rule="evenodd" d="M0.408726 2.04754C0 2.8497 0 3.8998 0 6V14C0 16.1002 0 17.1503 0.408726 17.9525C0.768251 18.6581 1.34193 19.2317 2.04754 19.5913C2.8497 20 3.8998 20 6 20H8.47845V12.9949H5.875V9.96729H8.47845V7.73971C8.47845 5.15695 10.0578 3.75005 12.3612 3.75005C13.1374 3.74836 13.9132 3.78749 14.6853 3.86729V6.56729H13.0991C11.844 6.56729 11.5991 7.1604 11.5991 8.03626V9.96385H14.5991L14.2095 12.9914H11.5819V20H14C16.1002 20 17.1503 20 17.9525 19.5913C18.6581 19.2317 19.2317 18.6581 19.5913 17.9525C20 17.1503 20 16.1002 20 14V6C20 3.8998 20 2.8497 19.5913 2.04754C19.2317 1.34193 18.6581 0.768251 17.9525 0.408726C17.1503 0 16.1002 0 14 0H6C3.8998 0 2.8497 0 2.04754 0.408726C1.34193 0.768251 0.768251 1.34193 0.408726 2.04754Z" fill="#B9BCBF"/>
</svg>
