<svg width="100" height="36" viewBox="0 0 100 36" fill="none" xmlns="http://www.w3.org/2000/svg">
<path fill-rule="evenodd" clip-rule="evenodd" d="M84.7566 8.45682C84.9301 8.3455 84.9149 8.19288 84.857 8.07841L83.627 6.12264C83.5235 5.95776 83.3763 5.99067 83.2745 6.04073C81.4402 7.18401 76.906 11.1383 76.9063 17.9735V26.0395C76.9195 26.1669 76.9881 26.3034 77.1844 26.3076H79.4415C79.6351 26.3034 79.7043 26.1718 79.7189 26.0458V17.9735C79.7189 12.0873 83.8279 9.05437 84.7566 8.45682ZM17.3679 17.9735C17.3679 18.2111 17.3374 25.2942 17.3374 25.2942C17.3385 27.7141 16.3637 29.917 14.7943 31.5018C13.227 33.0879 11.0472 34.0733 8.65366 34.0729C6.34394 34.0733 4.23541 33.154 2.68267 31.6649C2.61722 31.5718 2.58779 31.4464 2.69375 31.3194L4.34795 29.6461C4.47365 29.5551 4.59762 29.5985 4.68627 29.6685C5.73482 30.6396 7.11962 31.2294 8.65366 31.2298C10.2795 31.2294 11.7391 30.5678 12.8056 29.4917C13.8701 28.4125 14.5249 26.9377 14.5256 25.2942V24.4691C12.9857 25.8854 10.9291 26.7529 8.68413 26.7522C6.29061 26.7529 4.11075 25.7668 2.54346 24.1807C0.975138 22.5963 0 20.393 0 17.9735C0 15.5535 0.975138 13.3503 2.54346 11.7659C4.11075 10.1798 6.29096 9.19368 8.68413 9.19438C11.0777 9.19368 13.2579 10.1794 14.8245 11.7659C16.3942 13.3503 17.3683 15.5535 17.3679 17.9735ZM12.8361 13.7756C13.9013 14.8544 14.5554 16.3296 14.5557 17.9734H14.5533L14.5256 18.5773C14.3864 19.9765 13.769 21.2262 12.8361 22.1706C11.7688 23.247 10.3099 23.9087 8.68414 23.9094C7.05868 23.9087 5.59978 23.247 4.53253 22.1706C3.46771 21.0921 2.81357 19.6166 2.81288 17.9734C2.81357 16.3296 3.46771 14.8544 4.53253 13.7756C5.59944 12.6991 7.05833 12.0379 8.68414 12.0375C10.3099 12.0379 11.7688 12.6998 12.8361 13.7756ZM53.0353 11.7659C51.4684 10.1794 49.2888 9.19368 46.8946 9.19438C44.5015 9.19368 42.3216 10.1798 40.754 11.7659C39.1856 13.3503 38.2108 15.5535 38.2108 17.9735C38.2108 20.393 39.1856 22.5963 40.754 24.1807C42.3216 25.7668 44.5008 26.7529 46.8946 26.7522C49.1396 26.7529 51.1965 25.8854 52.7361 24.4691V25.2942C52.7354 26.9377 52.0813 28.4125 51.0161 29.4917C49.9496 30.5678 48.49 31.2294 46.8649 31.2298C45.3301 31.2294 43.9457 30.6396 42.8971 29.6685C42.8081 29.5985 42.6842 29.5551 42.5591 29.6461L40.9049 31.3194C40.7986 31.4464 40.8284 31.5718 40.8932 31.6649C42.4463 33.154 44.5544 34.0733 46.8649 34.0729C49.2577 34.0733 51.4375 33.0879 53.0052 31.5018C54.5742 29.917 55.549 27.7141 55.5479 25.2942C55.5479 25.2942 55.5788 18.2111 55.5788 17.9735C55.5791 15.5535 54.6047 13.3503 53.0353 11.7659ZM52.736 18.5773L52.7641 17.9734H52.7665C52.7658 16.3296 52.1114 14.8544 51.0465 13.7756C49.9793 12.6998 48.5204 12.0379 46.8946 12.0375C45.2688 12.0379 43.8095 12.6991 42.743 13.7756C41.6781 14.8544 41.0237 16.3296 41.0233 17.9734C41.0237 19.6166 41.6781 21.0921 42.743 22.1706C43.8102 23.247 45.2691 23.9087 46.8946 23.9094C48.5204 23.9087 49.9793 23.247 51.0465 22.1706C51.9794 21.2262 52.5968 19.9765 52.736 18.5773ZM74.7543 17.9735C74.7543 20.3924 73.7802 22.5963 72.2101 24.1807C70.6439 25.7668 68.464 26.7529 66.0701 26.7522C63.6763 26.7529 61.4968 25.7668 59.9295 24.1807C58.3605 22.5963 57.3857 20.3924 57.3864 17.9735C57.3857 15.5535 58.3605 13.3503 59.9295 11.7659C61.4968 10.1794 63.6763 9.19368 66.0701 9.19438C68.4633 9.19368 70.6439 10.1794 72.2101 11.7659C73.7802 13.3503 74.7543 15.5535 74.7543 17.9735ZM70.222 13.7756C71.2865 14.8544 71.9413 16.3296 71.942 17.9734C71.9413 19.6166 71.2868 21.0921 70.222 22.1706C69.1547 23.247 67.6952 23.9087 66.07 23.9094C64.4442 23.9087 62.985 23.247 61.9181 22.1706C60.8529 21.0921 60.1991 19.6166 60.1984 17.9734C60.1991 16.3296 60.8529 14.8544 61.9181 13.7756C62.985 12.6998 64.4442 12.0379 66.07 12.0375C67.6959 12.0379 69.1547 12.6998 70.222 13.7756ZM33.9019 11.7659C32.335 10.1794 30.1551 9.19368 27.7612 9.19438C25.3681 9.19368 23.1885 10.1794 21.6209 11.7659C20.0519 13.3503 19.0771 15.5535 19.0781 17.9735C19.0771 20.3924 20.0519 22.5963 21.6209 24.1807C23.1882 25.7668 25.3681 26.7529 27.7612 26.7522C30.1551 26.7529 32.335 25.7668 33.9019 24.1807C35.4709 22.5963 36.4457 20.3931 36.445 17.9735C36.4457 15.5535 35.4709 13.3503 33.9019 11.7659ZM27.7613 23.9094C29.3871 23.9087 30.8464 23.247 31.9136 22.1706C32.9788 21.0917 33.6329 19.6166 33.6336 17.9734C33.6329 16.3296 32.9788 14.8544 31.9136 13.7756C30.8464 12.6998 29.3871 12.0379 27.7613 12.0375C26.1355 12.0379 24.677 12.6998 23.6101 13.7756C22.5452 14.8544 21.8907 16.3296 21.8904 17.9734C21.8907 19.6166 22.5452 21.0921 23.6101 22.1706C24.677 23.247 26.1355 23.9087 27.7613 23.9094ZM99.7303 17.9735C99.7313 20.3924 98.7565 22.5963 97.1872 24.1807C95.6206 25.7668 93.4404 26.7529 91.0465 26.7522C88.6526 26.7529 86.4728 25.7668 84.9051 24.1807C83.3368 22.5963 82.3624 20.3931 82.3624 17.9735C82.3624 15.5535 83.3368 13.3503 84.9051 11.7659C86.4735 10.1794 88.6526 9.19368 91.0465 9.19438C93.44 9.19368 95.6199 10.1794 97.1872 11.7659C98.7565 13.3503 99.7313 15.5535 99.7303 17.9735ZM95.1988 13.7756C96.2636 14.8544 96.9178 16.3296 96.9185 17.9734C96.9178 19.6166 96.2636 21.0921 95.1988 22.1706C94.1316 23.247 92.6723 23.9087 91.0465 23.9094C89.4214 23.9087 87.9614 23.247 86.8942 22.1706C85.8301 21.0921 85.1756 19.6166 85.1749 17.9734C85.1756 16.3296 85.8301 14.8544 86.8942 13.7756C87.9614 12.6998 89.4214 12.0379 91.0465 12.0375C92.6723 12.0379 94.1316 12.6998 95.1988 13.7756Z" fill="white"/>
</svg>
