<svg width="20" height="20" viewBox="0 0 20 20" fill="none" xmlns="http://www.w3.org/2000/svg">
<path fill-rule="evenodd" clip-rule="evenodd" d="M5.87701 0.0601777C6.94362 0.0115116 7.28416 0 10 0C12.7158 0 13.0564 0.0115116 14.123 0.0601777C15.1874 0.108725 15.9143 0.277786 16.5504 0.525007C17.208 0.780524 17.7656 1.12246 18.3216 1.67839C18.8775 2.23436 19.2195 2.79203 19.475 3.44962C19.7222 4.08569 19.8913 4.81263 19.9398 5.87701C19.9885 6.94362 20 7.28416 20 10C20 12.7158 19.9885 13.0564 19.9398 14.123C19.8913 15.1874 19.7222 15.9143 19.475 16.5504C19.2195 17.208 18.8775 17.7656 18.3216 18.3216C17.7656 18.8775 17.208 19.2195 16.5504 19.475C15.9143 19.7222 15.1874 19.8913 14.123 19.9398C13.0564 19.9885 12.7158 20 10 20C7.28416 20 6.94362 19.9885 5.87701 19.9398C4.81263 19.8913 4.08569 19.7222 3.44962 19.475C2.79203 19.2195 2.23436 18.8775 1.67839 18.3216C1.12246 17.7656 0.780524 17.208 0.525007 16.5504C0.277786 15.9143 0.108725 15.1874 0.0601777 14.123C0.0115116 13.0564 0 12.7158 0 10C0 7.28416 0.0115116 6.94362 0.0601777 5.87701C0.108725 4.81263 0.277786 4.08569 0.525007 3.44962C0.780524 2.79203 1.12246 2.23436 1.67839 1.67839C2.23436 1.12246 2.79203 0.780524 3.44962 0.525007C4.08569 0.277786 4.81263 0.108725 5.87701 0.0601777ZM15.8977 2.20438C15.5454 2.06744 15.0159 1.90453 14.0409 1.86007C12.9864 1.81196 12.6701 1.80176 10 1.80176C7.3299 1.80176 7.01361 1.81196 5.95915 1.86007C4.98416 1.90453 4.45467 2.06744 4.1023 2.20438C3.63552 2.38579 3.3024 2.60249 2.95249 2.95244C2.60254 3.30235 2.38584 3.63547 2.20444 4.10225C2.06749 4.45462 1.90458 4.98411 1.86012 5.9591C1.81201 7.01356 1.80181 7.32985 1.80181 9.99998C1.80181 12.6701 1.81201 12.9864 1.86012 14.0408C1.90458 15.0158 2.06749 15.5453 2.20444 15.8977C2.38584 16.3644 2.60258 16.6976 2.95249 17.0475C3.3024 17.3974 3.63552 17.6141 4.1023 17.7955C4.45467 17.9325 4.98416 18.0954 5.95915 18.1398C7.01349 18.188 7.3297 18.1982 10 18.1982C12.6703 18.1982 12.9866 18.188 14.0409 18.1398C15.0159 18.0954 15.5454 17.9325 15.8977 17.7955C16.3645 17.6141 16.6976 17.3974 17.0475 17.0475C17.3975 16.6976 17.6142 16.3644 17.7956 15.8977C17.9325 15.5453 18.0954 15.0158 18.1399 14.0408C18.188 12.9864 18.1982 12.6701 18.1982 9.99998C18.1982 7.32985 18.188 7.01356 18.1399 5.9591C18.0954 4.98411 17.9325 4.45462 17.7956 4.10225C17.6142 3.63547 17.3975 3.30235 17.0475 2.95244C16.6976 2.60249 16.3645 2.38579 15.8977 2.20438ZM10 4.86488C7.16394 4.86488 4.86488 7.16394 4.86488 10C4.86488 12.8361 7.16394 15.1351 10 15.1351C12.8361 15.1351 15.1351 12.8361 15.1351 10C15.1351 7.16394 12.8361 4.86488 10 4.86488ZM6.66665 9.99999C6.66665 11.8409 8.15903 13.3333 10 13.3333C11.8409 13.3333 13.3333 11.8409 13.3333 9.99999C13.3333 8.15902 11.8409 6.66664 10 6.66664C8.15903 6.66664 6.66665 8.15902 6.66665 9.99999ZM15.338 5.86199C16.0008 5.86199 16.538 5.32476 16.538 4.66201C16.538 3.99926 16.0008 3.46199 15.338 3.46199C14.6753 3.46199 14.138 3.99926 14.138 4.66201C14.138 5.32476 14.6753 5.86199 15.338 5.86199Z" fill="#B9BCBF"/>
</svg>
