<svg width="20" height="20" viewBox="0 0 20 20" fill="none" xmlns="http://www.w3.org/2000/svg">
<path fill-rule="evenodd" clip-rule="evenodd" d="M0.408726 2.04754C0 2.8497 0 3.8998 0 6V14C0 16.1002 0 17.1503 0.408726 17.9525C0.768251 18.6581 1.34193 19.2317 2.04754 19.5913C2.8497 20 3.8998 20 6 20H14C16.1002 20 17.1503 20 17.9525 19.5913C18.6581 19.2317 19.2317 18.6581 19.5913 17.9525C20 17.1503 20 16.1002 20 14V6C20 3.8998 20 2.8497 19.5913 2.04754C19.2317 1.34193 18.6581 0.768251 17.9525 0.408726C17.1503 0 16.1002 0 14 0H6C3.8998 0 2.8497 0 2.04754 0.408726C1.34193 0.768251 0.768251 1.34193 0.408726 2.04754ZM15.4951 8.50495C14.745 7.7548 13.7275 7.33337 12.6667 7.33337C11.6058 7.33337 10.5884 7.7548 9.83824 8.50495C9.0881 9.25509 8.66667 10.2725 8.66667 11.3334V16H11.3333V11.3334C11.3333 10.9798 11.4738 10.6406 11.7239 10.3906C11.9739 10.1405 12.3131 10 12.6667 10C13.0203 10 13.3594 10.1405 13.6095 10.3906C13.8595 10.6406 14 10.9798 14 11.3334V16H16.6667V11.3334C16.6667 10.2725 16.2452 9.25509 15.4951 8.50495ZM5.99999 16V8H3.33333V16H5.99999ZM5.99999 4.66671C5.99999 5.40309 5.40304 6.00004 4.66666 6.00004C3.93028 6.00004 3.33333 5.40309 3.33333 4.66671C3.33333 3.93033 3.93028 3.33337 4.66666 3.33337C5.40304 3.33337 5.99999 3.93033 5.99999 4.66671Z" fill="#B9BCBF"/>
</svg>
