<svg width="21" height="20" viewBox="0 0 21 20" fill="none" xmlns="http://www.w3.org/2000/svg">
<path fill-rule="evenodd" clip-rule="evenodd" d="M6.44645 18.2625C13.9935 18.2625 18.1231 12.004 18.1231 6.58584C18.1231 6.40977 18.1231 6.2337 18.1151 6.05762C18.9154 5.48139 19.6117 4.7531 20.1639 3.92877C19.4276 4.2569 18.6353 4.47299 17.803 4.57703C18.6513 4.07283 19.2996 3.26451 19.6117 2.30412C18.8194 2.77631 17.9391 3.11245 17.0027 3.29652C16.2504 2.4962 15.1859 2 14.0095 2C11.7446 2 9.90384 3.84074 9.90384 6.10564C9.90384 6.42577 9.94385 6.7379 10.0079 7.04202C6.59851 6.87395 3.5733 5.23329 1.54849 2.7523C1.19635 3.36054 0.996273 4.06483 0.996273 4.81713C0.996273 6.2417 1.72456 7.4982 2.821 8.2345C2.14873 8.21049 1.51648 8.02641 0.964261 7.72229C0.964261 7.7383 0.964261 7.7543 0.964261 7.77831C0.964261 9.76311 2.38083 11.4278 4.25358 11.8039C3.90944 11.9 3.54929 11.948 3.17314 11.948C2.90904 11.948 2.65294 11.924 2.40484 11.876C2.92505 13.5086 4.44565 14.6931 6.23837 14.7251C4.82981 15.8295 3.0611 16.4858 1.14033 16.4858C0.8122 16.4858 0.484068 16.4698 0.16394 16.4298C1.97266 17.5822 4.13353 18.2625 6.44645 18.2625Z" fill="#B9BCBF"/>
</svg>
