<svg width="20" height="20" viewBox="0 0 20 20" fill="none" xmlns="http://www.w3.org/2000/svg">
<path d="M19.5818 4.7C19.4687 4.27451 19.2459 3.88618 18.9356 3.57388C18.6253 3.26158 18.2384 3.03625 17.8136 2.92045C16.25 2.5 10 2.5 10 2.5C10 2.5 3.75 2.5 2.18636 2.92045C1.76161 3.03625 1.37472 3.26158 1.06441 3.57388C0.754097 3.88618 0.531255 4.27451 0.418182 4.7C0 6.27045 0 9.54545 0 9.54545C0 9.54545 0 12.8205 0.418182 14.3909C0.531255 14.8164 0.754097 15.2047 1.06441 15.517C1.37472 15.8293 1.76161 16.0547 2.18636 16.1705C3.75 16.5909 10 16.5909 10 16.5909C10 16.5909 16.25 16.5909 17.8136 16.1705C18.2384 16.0547 18.6253 15.8293 18.9356 15.517C19.2459 15.2047 19.4687 14.8164 19.5818 14.3909C20 12.8205 20 9.54545 20 9.54545C20 9.54545 20 6.27045 19.5818 4.7ZM7.95455 12.5193V6.57159L13.1818 9.54545L7.95455 12.5193Z" fill="#B9BCBF"/>
</svg>
